<svg width="500" height="500" viewBox="0 0 100 100" xmlns="http://www.w3.org/2000/svg">
    <!-- 배경 투명 실드 -->
    <path d="M50 2 L95 16 V68 C95 82 75 98 50 98 C25 98 5 82 5 68 V16 L50 2 Z" fill="#EF0107" />
    
    <!-- 상단 텍스트 -->
    <text x="50" y="32" font-family="Arial, Helvetica, sans-serif" font-weight="900" font-size="11" fill="white" text-anchor="middle" letter-spacing="0.5">ARSENAL</text>
    
    <!-- 금색 대포 아이콘 (세부 묘사) -->
    <g transform="translate(18, 45) scale(0.85)" fill="white">
        <!-- 대포 몸체 -->
        <path d="M10 15 L60 18 Q65 18.5 65 20 V22 Q65 23.5 60 24 L10 27 Z" />
        <rect x="5" y="14" width="6" height="14" rx="1" />
        <rect x="58" y="17" width="4" height="7" rx="1" />
        
        <!-- 대포 바퀴 -->
        <circle cx="30" cy="32" r="8" fill="none" stroke="white" stroke-width="2" />
        <circle cx="30" cy="32" r="2" fill="white" />
        <path d="M30 24 V40 M22 32 H38" stroke="white" stroke-width="1" />
        
        <!-- 대포 지지대 -->
        <path d="M10 25 L5 35 H25 L20 25 Z" />
    </g>
    
    <!-- 실드 테두리 (입체감) -->
    <path d="M50 2 L95 16 V68 C95 82 75 98 50 98 C25 98 5 82 5 68 V16 L50 2 Z" fill="none" stroke="rgba(255,255,255,0.2)" stroke-width="1.5" />
</svg>
